<?xml version="1.0" encoding="UTF-8" standalone="no"?><!DOCTYPE svg PUBLIC "-//W3C//DTD SVG 1.1//EN" "http://www.w3.org/Graphics/SVG/1.1/DTD/svg11.dtd"><svg xmlns="http://www.w3.org/2000/svg" version="1.1" width="335" height="176"><path stroke-linejoin="round" stroke-linecap="round" stroke-width="2" stroke="rgb(0, 0, 139)" fill="none" d="M 6 95 c -0.07 0.12 -3.81 4.64 -4 7 c -1.3 16.42 -1 36.92 -1 56 c 0 5.12 -0.48 12.21 1 15 c 0.81 1.53 5.34 1.92 8 2 c 18.06 0.56 37.31 1.23 56 0 c 16.85 -1.11 33.44 -3.5 50 -7 c 18.39 -3.89 38.22 -8.88 54 -15 c 4.79 -1.86 9.97 -6.91 13 -11 c 3.11 -4.2 5.9 -10.81 7 -16 c 1.07 -5.06 0.54 -11.38 0 -17 c -0.8 -8.38 -1.7 -18.09 -4 -25 c -0.97 -2.9 -4.41 -6.02 -7 -8 c -2.72 -2.08 -6.58 -3.5 -10 -5 c -1.94 -0.85 -4.05 -1.64 -6 -2 c -1.55 -0.28 -3.44 -0.31 -5 0 c -3.25 0.65 -7.73 1.33 -10 3 c -2.05 1.5 -3.71 5.19 -5 8 c -2.33 5.09 -4.72 10.71 -6 16 c -0.97 4.04 -1 8.6 -1 13 c 0 8.77 -0.83 18.66 1 26 c 1.17 4.69 5.51 9.93 9 14 c 4.3 5.02 9.69 10.87 15 14 c 5.16 3.03 12.54 4.82 19 6 c 13.38 2.45 27.14 4.04 41 5 c 10.41 0.72 21.5 1.93 31 0 c 13.95 -2.83 29.33 -9.17 43 -15 c 6.33 -2.7 12.65 -6.75 18 -11 c 5.73 -4.55 12.06 -10.61 16 -16 c 1.82 -2.49 2.49 -6.62 3 -10 c 1.13 -7.47 1.64 -15.15 2 -23 c 0.32 -7.14 0.46 -13.94 0 -21 c -0.55 -8.46 -1.07 -17.92 -3 -25 c -0.77 -2.81 -3.75 -5.75 -6 -8 c -2.25 -2.25 -5.1 -4.73 -8 -6 c -10.2 -4.48 -21.66 -9.4 -33 -12 c -32.19 -7.37 -64.07 -12.31 -98 -18 c -19.6 -3.29 -57 -8 -57 -8"/></svg>