<?xml version="1.0" encoding="UTF-8" standalone="no"?><!DOCTYPE svg PUBLIC "-//W3C//DTD SVG 1.1//EN" "http://www.w3.org/Graphics/SVG/1.1/DTD/svg11.dtd"><svg xmlns="http://www.w3.org/2000/svg" version="1.1" width="277" height="140"><path stroke-linejoin="round" stroke-linecap="round" stroke-width="2" stroke="rgb(0, 0, 139)" fill="none" d="M 14 40 c -0.16 0.4 -6.79 15.26 -9 23 c -1.72 6.03 -2.47 12.55 -3 19 c -0.82 10.06 -1 19.88 -1 30 c 0 4.06 0.32 8.36 1 12 c 0.25 1.35 0.98 3.85 2 4 c 7.52 1.07 22.77 2.56 33 1 c 12.64 -1.93 27.62 -6.23 39 -12 c 11.77 -5.96 22.63 -16.27 34 -25 c 3.24 -2.49 7.65 -5.05 9 -8 c 1.81 -3.95 1.83 -10.69 2 -16 c 0.16 -5.27 0.52 -12.78 -1 -16 c -0.81 -1.71 -5.36 -2.83 -8 -3 c -11.76 -0.77 -27.6 -0.97 -38 0 c -1.75 0.16 -3.68 2.51 -5 4 c -1.2 1.35 -2.59 3.28 -3 5 c -1.13 4.76 -1.74 10.59 -2 16 c -0.41 8.39 -2.21 18.12 0 25 c 2.89 9.02 10.55 21.37 17 28 c 3.88 3.99 11.93 6.74 18 8 c 12.38 2.56 26.52 3.45 40 4 c 11.41 0.46 23.67 1.61 34 -1 c 19.79 -5 40.61 -14.56 61 -23 c 9.09 -3.76 18.05 -8.03 26 -13 c 5.05 -3.15 12.17 -7.53 14 -12 c 2.69 -6.57 2.21 -18.34 2 -27 c -0.12 -4.89 -1.15 -10.95 -3 -15 c -1.46 -3.19 -5.07 -6.36 -8 -9 c -3.65 -3.29 -7.77 -6.81 -12 -9 c -5.72 -2.95 -12.63 -5.9 -19 -7 c -12.31 -2.12 -25.65 -2.53 -39 -3 c -15.7 -0.55 -30.44 1.03 -46 0 c -30.59 -2.02 -59.45 -4.97 -90 -9 c -18.55 -2.45 -54 -10 -54 -10"/></svg>