<?xml version="1.0" encoding="UTF-8" standalone="no"?><!DOCTYPE svg PUBLIC "-//W3C//DTD SVG 1.1//EN" "http://www.w3.org/Graphics/SVG/1.1/DTD/svg11.dtd"><svg xmlns="http://www.w3.org/2000/svg" version="1.1" width="275" height="160"><path stroke-linejoin="round" stroke-linecap="round" stroke-width="2" stroke="rgb(0, 0, 139)" fill="none" d="M 14 73 c -0.07 0.07 -3.35 2.45 -4 4 c -2.67 6.31 -5.14 14.58 -7 22 c -1.14 4.55 -1.8 9.28 -2 14 c -0.47 11.35 -0.96 24.38 0 34 c 0.2 2.04 2.34 4.81 4 6 c 2.48 1.77 6.62 3.12 10 4 c 4.13 1.08 8.62 1.85 13 2 c 14.64 0.51 30.36 1.87 44 0 c 9.51 -1.3 20.58 -5.12 29 -10 c 15.93 -9.22 34.48 -21.9 47 -34 c 5.89 -5.69 11.01 -16.21 13 -24 c 1.97 -7.71 1.04 -18.72 0 -27 c -0.53 -4.27 -2.75 -9.16 -5 -13 c -3.23 -5.51 -7.78 -10.6 -12 -16 c -1.95 -2.49 -4.01 -6.08 -6 -7 c -1.53 -0.71 -5.71 -0.29 -7 1 c -4.47 4.47 -9.47 13.01 -14 20 c -3.66 5.65 -8.33 11.16 -10 17 c -3.34 11.68 -4.55 25.94 -6 39 c -0.55 4.96 -1.05 10.96 0 15 c 0.7 2.69 3.61 6.33 6 8 c 3.64 2.55 9.18 4.28 14 6 c 4.61 1.64 9.47 4 14 4 c 17.78 0 38.93 -0.86 57 -4 c 11.7 -2.04 23.29 -7.38 35 -12 c 12.47 -4.92 25.31 -10.17 36 -16 c 3.07 -1.67 6.17 -5.17 8 -8 c 1.54 -2.38 2.67 -6.04 3 -9 c 0.62 -5.62 2.16 -13.57 0 -18 c -4.19 -8.57 -13.53 -20.71 -22 -27 c -11.96 -8.88 -28.76 -16.1 -44 -22 c -21.75 -8.43 -67 -21 -67 -21"/></svg>