<?xml version="1.0" encoding="UTF-8" standalone="no"?><!DOCTYPE svg PUBLIC "-//W3C//DTD SVG 1.1//EN" "http://www.w3.org/Graphics/SVG/1.1/DTD/svg11.dtd"><svg xmlns="http://www.w3.org/2000/svg" version="1.1" width="214" height="101"><path stroke-linejoin="round" stroke-linecap="round" stroke-width="2" stroke="rgb(0, 0, 139)" fill="none" d="M 12 1 c -0.09 0.12 -4.21 4.5 -5 7 c -2.61 8.32 -5 18.7 -6 28 c -0.97 9.09 -2.47 20.88 0 28 c 2.13 6.12 10.06 13.65 16 18 c 6.84 5.01 16.88 9.49 25 12 c 4.99 1.54 11.63 1.37 17 1 c 3.9 -0.27 8.73 -1.1 12 -3 c 7.92 -4.62 17.36 -11.57 24 -18 c 3.38 -3.27 6.55 -8.54 8 -13 c 2.3 -7.1 3.79 -16.6 4 -24 c 0.1 -3.76 -1.37 -8.48 -3 -12 c -2.19 -4.74 -5.54 -10.36 -9 -14 c -2.71 -2.85 -7.51 -5.64 -11 -7 c -1.87 -0.73 -5.24 -0.53 -7 0 c -1.07 0.32 -2.34 1.87 -3 3 c -1.53 2.63 -3.13 5.9 -4 9 c -2.09 7.41 -4.22 15.36 -5 23 c -0.86 8.44 -1.45 18.11 0 26 c 1.38 7.49 5.64 16.28 9 23 c 0.96 1.92 3.16 3.62 5 5 c 3.4 2.55 7.35 6.2 11 7 c 5.88 1.29 14.91 1.48 21 0 c 6.48 -1.58 14.62 -5.67 20 -10 c 7.5 -6.04 15.81 -14.81 21 -23 c 5.23 -8.25 8.58 -19.16 12 -29 c 1.91 -5.48 3.2 -11.39 4 -17 c 0.5 -3.53 1.45 -9.07 0 -11 c -1.71 -2.28 -8.18 -3.88 -12 -5 c -1.47 -0.43 -3.54 -0.32 -5 0 c -1.3 0.29 -3.53 0.94 -4 2 c -2.51 5.71 -6.2 15.5 -7 23 c -1.1 10.3 -1.11 23.62 1 33 c 1.2 5.36 5.8 12.01 10 16 c 7.98 7.57 19.95 16.68 29 21 c 3.79 1.81 10.1 0.39 15 0 c 3.33 -0.27 7.12 -0.97 10 -2 c 1.41 -0.51 3.23 -1.79 4 -3 c 1.31 -2.07 2.49 -5.33 3 -8 c 0.78 -4.08 2.41 -9.49 1 -13 c -8.34 -20.73 -34 -69 -34 -69"/></svg>