<?xml version="1.0" encoding="UTF-8" standalone="no"?><!DOCTYPE svg PUBLIC "-//W3C//DTD SVG 1.1//EN" "http://www.w3.org/Graphics/SVG/1.1/DTD/svg11.dtd"><svg xmlns="http://www.w3.org/2000/svg" version="1.1" width="185" height="133"><path stroke-linejoin="round" stroke-linecap="round" stroke-width="2" stroke="rgb(0, 0, 139)" fill="none" d="M 26 1 c -0.44 1.35 -18.1 52.45 -25 77 c -1.02 3.64 -2 9.65 0 12 c 10.4 12.21 32.46 40.52 46 42 c 15.37 1.68 44.26 -20.28 64 -30 c 1.18 -0.58 2.68 -1.82 3 -3 c 4.33 -15.97 9.17 -37.74 13 -56 c 0.4 -1.91 0.88 -4.61 0 -6 c -3.95 -6.27 -11.52 -15.28 -17 -21 c -1.09 -1.14 -4.02 -2.73 -5 -2 c -9.97 7.37 -36.51 23.76 -41 36 c -4.49 12.24 5.04 39.95 8 54 c 0.27 1.29 2.87 1.87 4 3 c 1.13 1.13 1.77 3.95 3 4 c 18.63 0.71 53.23 -0.15 76 -1 c 1.34 -0.05 3.17 -0.96 4 -2 c 7.87 -9.77 23.5 -23.51 25 -34 c 1.83 -12.84 -8.6 -34.45 -13 -50 l -2 -3"/></svg>