<?xml version="1.0" encoding="UTF-8" standalone="no"?><!DOCTYPE svg PUBLIC "-//W3C//DTD SVG 1.1//EN" "http://www.w3.org/Graphics/SVG/1.1/DTD/svg11.dtd"><svg xmlns="http://www.w3.org/2000/svg" version="1.1" width="119" height="128"><path stroke-linejoin="round" stroke-linecap="round" stroke-width="2" stroke="rgb(0, 0, 139)" fill="none" d="M 1 5 c 0 1 -0.81 39.35 0 57 c 0.12 2.65 2.51 5.4 3 8 c 0.46 2.44 -1.48 7.63 0 8 c 14.23 3.56 62.42 16.91 76 11 c 9.45 -4.11 13.58 -38.47 16 -51 c 0.35 -1.83 -2.97 -4.59 -5 -6 c -14.82 -10.35 -33.76 -22.97 -48 -31 c -1.74 -0.98 -6.75 -1.3 -7 0 c -4.32 22.92 -14.59 96.56 -16 122 c -0.11 2.04 6.69 4.88 9 4 c 15.52 -5.93 43.2 -18.45 59 -30 c 7.88 -5.76 14.6 -17.62 19 -27 c 5.14 -10.97 9.14 -27.23 11 -37 c 0.28 -1.48 -1.71 -3.71 -3 -5 c -3.77 -3.77 -8.94 -8.77 -13 -11 l -7 0"/></svg>