<?xml version="1.0" encoding="UTF-8" standalone="no"?><!DOCTYPE svg PUBLIC "-//W3C//DTD SVG 1.1//EN" "http://www.w3.org/Graphics/SVG/1.1/DTD/svg11.dtd"><svg xmlns="http://www.w3.org/2000/svg" version="1.1" width="290" height="154"><path stroke-linejoin="round" stroke-linecap="round" stroke-width="2" stroke="rgb(0, 0, 139)" fill="none" d="M 8 5 c -0.09 0.45 -3.65 17.1 -5 26 c -1.03 6.75 -1.81 13.19 -2 20 c -0.49 17.28 -1.06 34.19 0 51 c 0.59 9.38 2.97 18.85 5 28 c 0.61 2.75 2.41 5.29 3 8 c 1.04 4.8 -0.3 13.9 2 15 c 3.26 1.56 14.58 -1.68 21 -4 c 8.73 -3.16 17.2 -8.23 26 -13 c 16 -8.67 31.83 -16.48 46 -26 c 6.64 -4.46 13.62 -11.7 18 -17 c 1.08 -1.3 0.91 -3.98 1 -6 c 0.24 -5.63 0.78 -11.9 0 -17 c -0.45 -2.95 -2.29 -6.31 -4 -9 c -2.85 -4.48 -6.18 -9.45 -10 -13 c -5.17 -4.8 -11.76 -9.63 -18 -13 c -5.69 -3.08 -12.96 -5.24 -19 -7 c -1.49 -0.43 -4.71 -0.88 -5 0 c -1.24 3.71 -2 13.98 -2 21 c 0 11 0.83 22.05 2 33 c 0.5 4.74 1.53 9.48 3 14 c 2.53 7.8 6.33 15.23 9 23 c 1 2.9 0.95 6.15 2 9 c 2.59 7.06 5.13 19.43 9 21 c 4.12 1.68 15.63 -4.59 23 -8 c 15.03 -6.96 29.22 -14.54 44 -23 c 22.97 -13.15 49.1 -26.52 66 -40 c 4.52 -3.6 6.88 -12.92 8 -19 c 1.03 -5.61 -0.25 -13.26 -1 -19 c -0.18 -1.35 -1.08 -2.91 -2 -4 c -4.2 -4.99 -9 -10.74 -14 -15 c -3.72 -3.17 -8.53 -5.77 -13 -8 c -3.43 -1.71 -7.39 -2.4 -11 -4 c -5.51 -2.45 -14.47 -9.91 -16 -8 c -2.84 3.55 -3.54 21.82 -4 33 c -0.89 21.86 -0.28 42.77 0 65 c 0.06 4.8 -0.02 10.34 1 14 c 0.41 1.47 3.16 2.47 4 4 c 2.6 4.72 3.5 14.54 7 16 c 5.82 2.42 19.99 0.88 29 -1 c 12.47 -2.61 24.94 -9.06 38 -13 c 8.36 -2.52 17.19 -3.56 25 -6 c 2.45 -0.77 5.65 -2.17 7 -4 c 2.76 -3.75 5.64 -10.06 7 -15 c 1.15 -4.18 0.9 -9.2 1 -14 c 0.24 -11.29 0.72 -24.37 0 -33 c -0.09 -1.11 -2.26 -3 -3 -3 c -0.74 0 -2.43 1.83 -3 3 c -4.08 8.44 -8.11 18.28 -12 28 c -2.99 7.47 -6.33 14.91 -8 22 c -0.86 3.63 0.38 8.03 0 12 c -0.62 6.37 -1.75 12.75 -3 19 c -0.41 2.06 -1.77 4.03 -2 6 l 0 11"/></svg>