<?xml version="1.0" encoding="UTF-8" standalone="no"?><!DOCTYPE svg PUBLIC "-//W3C//DTD SVG 1.1//EN" "http://www.w3.org/Graphics/SVG/1.1/DTD/svg11.dtd"><svg xmlns="http://www.w3.org/2000/svg" version="1.1" width="254" height="198"><path stroke-linejoin="round" stroke-linecap="round" stroke-width="2" stroke="rgb(0, 0, 139)" fill="none" d="M 20 23 c -0.19 0.44 -8.29 16.44 -11 25 c -3.56 11.26 -6.5 23.65 -8 35 c -0.75 5.7 -0.07 12.87 1 18 c 0.43 2.05 2.39 4.39 4 6 c 2.86 2.86 6.47 5.85 10 8 c 3.95 2.4 8.76 5.18 13 6 c 5.33 1.03 12.15 0.7 18 0 c 7.96 -0.95 16.01 -2.91 24 -5 c 6.19 -1.62 12.49 -3.32 18 -6 c 6.53 -3.18 12.97 -7.64 19 -12 c 3.61 -2.61 7.39 -5.67 10 -9 c 3.13 -3.99 6.36 -9.19 8 -14 c 2.5 -7.31 5.71 -18.33 5 -24 c -0.35 -2.78 -5.7 -6.19 -9 -8 c -6.51 -3.57 -15.02 -6.9 -22 -9 c -2.35 -0.71 -5.59 -0.57 -8 0 c -4.19 1 -10.22 2.52 -13 5 c -2.68 2.39 -4.92 7.89 -6 12 c -2.44 9.32 -3.55 19.68 -5 30 c -0.96 6.82 -2.77 13.77 -2 20 c 1.45 11.8 4.77 25.59 9 37 c 3.19 8.59 8.1 18.56 14 25 c 7.78 8.49 19.71 16.21 30 23 c 5.12 3.37 11.29 6.6 17 8 c 8.56 2.09 18.89 3 28 3 c 7.51 0 16.25 -0.51 23 -3 c 11.2 -4.13 23.83 -11.29 34 -18 c 4.86 -3.21 9.02 -8.35 13 -13 c 4.03 -4.7 8.63 -9.81 11 -15 c 2.63 -5.75 3.87 -13.2 5 -20 c 1.55 -9.29 2.79 -18.9 3 -28 c 0.11 -4.89 -0.66 -10.24 -2 -15 c -2.92 -10.34 -6.15 -22.03 -11 -31 c -3.66 -6.78 -10.06 -13.47 -16 -19 c -8.18 -7.61 -17.67 -15.05 -27 -21 c -5.98 -3.82 -13.14 -6.3 -20 -9 l -13 -4"/></svg>