<?xml version="1.0" encoding="UTF-8" standalone="no"?><!DOCTYPE svg PUBLIC "-//W3C//DTD SVG 1.1//EN" "http://www.w3.org/Graphics/SVG/1.1/DTD/svg11.dtd"><svg xmlns="http://www.w3.org/2000/svg" version="1.1" width="254" height="123"><path stroke-linejoin="round" stroke-linecap="round" stroke-width="2" stroke="rgb(0, 0, 139)" fill="none" d="M 4 38 c -0.05 0.79 -2.36 29.56 -3 45 c -0.39 9.24 -0.27 17.98 0 27 c 0.07 2.36 -0.03 5.97 1 7 c 1.03 1.03 5.24 1.85 7 1 c 12.92 -6.21 30.52 -16.24 45 -26 c 17.5 -11.79 35.08 -24.71 50 -38 c 5.61 -4.99 10.16 -12.76 14 -19 c 1.18 -1.92 1.69 -4.7 2 -7 c 0.34 -2.53 0.5 -5.67 0 -8 c -0.42 -1.96 -1.61 -4.61 -3 -6 c -2.23 -2.23 -5.85 -4.84 -9 -6 c -6.29 -2.31 -14.56 -3.12 -21 -5 c -1.07 -0.31 -2.21 -2 -3 -2 c -0.79 0 -2.75 1.09 -3 2 c -1.91 6.91 -4.4 17.97 -5 27 c -1.05 15.79 -1.02 33.72 0 48 c 0.19 2.66 2.19 5.82 4 8 c 5.86 7.08 13.04 15.09 20 21 c 3.54 3.01 8.57 5.07 13 7 c 3.14 1.36 6.61 2.37 10 3 c 5.56 1.03 11.43 2.2 17 2 c 12.76 -0.46 28.48 0.24 39 -4 c 11.1 -4.47 22.06 -16.2 33 -25 c 4.68 -3.76 9.2 -7.68 13 -12 c 3.4 -3.86 8.02 -8.64 9 -13 c 1.67 -7.44 0.92 -19.17 0 -27 c -0.28 -2.34 -2.38 -5.08 -4 -7 c -1.86 -2.19 -4.59 -4.25 -7 -6 c -1.17 -0.85 -3.59 -2.59 -4 -2 c -1.43 2.07 -3.55 9.8 -5 15 c -2.65 9.49 -6 18.74 -7 28 c -1.28 11.87 -0.29 25.06 0 37 c 0.03 1.33 0.17 3.27 1 4 c 3.63 3.18 9.86 7.12 15 10 c 3.07 1.72 6.65 2.95 10 4 c 1.89 0.59 4.93 1.89 6 1 c 3.51 -2.92 9.59 -10.66 12 -16 c 1.83 -4.04 2.87 -10.76 2 -15 l -9 -19"/></svg>