<?xml version="1.0" encoding="UTF-8" standalone="no"?><!DOCTYPE svg PUBLIC "-//W3C//DTD SVG 1.1//EN" "http://www.w3.org/Graphics/SVG/1.1/DTD/svg11.dtd"><svg xmlns="http://www.w3.org/2000/svg" version="1.1" width="218" height="212"><path stroke-linejoin="round" stroke-linecap="round" stroke-width="2" stroke="rgb(0, 0, 139)" fill="none" d="M 2 98 c -0.02 0.75 -2.57 29.87 -1 43 c 0.93 7.82 5.59 16.27 9 24 c 1.55 3.52 3.76 7.76 6 10 c 1.21 1.21 3.98 1.66 6 2 c 3.84 0.64 7.9 0.86 12 1 c 6.13 0.2 12.3 0.91 18 0 c 8.53 -1.36 17.4 -4.2 26 -7 c 5.87 -1.91 11.64 -4.23 17 -7 c 4.2 -2.17 8.69 -4.81 12 -8 c 5.69 -5.49 11.49 -12.45 16 -19 c 2.6 -3.78 5.23 -8.75 6 -13 c 1.08 -5.94 1.12 -14.22 0 -20 c -0.7 -3.62 -3.45 -7.99 -6 -11 c -4.46 -5.27 -10.76 -10.95 -16 -15 c -1.51 -1.17 -4.49 -2.35 -6 -2 c -2.05 0.47 -5.63 2.83 -7 5 c -6.5 10.25 -16.85 24.09 -19 36 c -3.96 21.95 -3.11 53.88 -1 75 c 0.51 5.08 6.59 11.37 10 15 c 1.2 1.27 3.97 1.67 6 2 c 6.15 0.98 12.54 1.68 19 2 c 7.1 0.35 14.84 1.39 21 0 c 6.17 -1.39 12.63 -5.64 19 -9 c 11.8 -6.23 23.26 -11.98 34 -19 c 6.46 -4.22 13.08 -9.45 18 -15 c 5.01 -5.65 9.92 -13.43 13 -20 c 1.57 -3.35 1.69 -7.93 2 -12 c 0.7 -9.38 4.71 -21.44 1 -28 c -11 -19.46 -33.91 -44.17 -53 -64 c -15.15 -15.74 -50 -43 -50 -43"/></svg>