<?xml version="1.0" encoding="UTF-8" standalone="no"?><!DOCTYPE svg PUBLIC "-//W3C//DTD SVG 1.1//EN" "http://www.w3.org/Graphics/SVG/1.1/DTD/svg11.dtd"><svg xmlns="http://www.w3.org/2000/svg" version="1.1" width="244" height="125"><path stroke-linejoin="round" stroke-linecap="round" stroke-width="2" stroke="rgb(0, 0, 139)" fill="none" d="M 1 13 c 0.02 1.94 -10.49 99.24 1 111 c 9.19 9.4 69.77 -9.08 86 -22 c 11.4 -9.08 18.03 -47.47 17 -60 c -0.44 -5.31 -15.26 -10.73 -23 -13 c -10.32 -3.03 -28.36 -7.76 -35 -4 c -7.25 4.1 -15.81 22.92 -18 34 c -2.96 14.98 -7.71 48.65 1 52 c 23.79 9.15 104.51 12.5 142 3 c 24.03 -6.09 62.14 -39.27 71 -57 c 5.39 -10.78 -9.39 -42.43 -16 -53 c -2.29 -3.67 -12.65 -2.27 -19 -3 c -2.31 -0.27 -5.02 -0.78 -7 0 c -19.16 7.5 -50.46 15.8 -62 27 c -6.73 6.53 -4.43 25.95 -6 39 c -0.44 3.64 -1.69 8.58 0 11 c 8.07 11.53 23.87 27.3 35 39 l 4 2"/></svg>