<?xml version="1.0" encoding="UTF-8" standalone="no"?><!DOCTYPE svg PUBLIC "-//W3C//DTD SVG 1.1//EN" "http://www.w3.org/Graphics/SVG/1.1/DTD/svg11.dtd"><svg xmlns="http://www.w3.org/2000/svg" version="1.1" width="266" height="175"><path stroke-linejoin="round" stroke-linecap="round" stroke-width="2" stroke="rgb(0, 0, 139)" fill="none" d="M 1 104 c 0.39 1.17 15.13 49.2 22 67 c 0.57 1.47 3.4 3.16 5 3 c 28.99 -2.9 82.12 0.52 105 -14 c 23.96 -15.21 50.73 -73.35 62 -92 c 0.57 -0.95 -2.43 -3.21 -4 -4 c -17.8 -8.9 -39.51 -19.39 -58 -27 c -2.9 -1.2 -8.3 -2.73 -10 -1 c -15.63 15.85 -46.72 49.89 -59 71 c -3.6 6.19 -2.78 24.51 2 27 c 12.32 6.42 48.64 13.2 69 10 c 31.95 -5.02 71.24 -24.76 103 -37 c 2.27 -0.87 5.3 -2.91 6 -5 c 7.04 -21.13 23.46 -59.42 21 -76 c -1.37 -9.22 -24.25 -22.1 -36 -25 c -14.23 -3.52 -36.07 1.36 -53 3 l -9 3"/></svg>