<?xml version="1.0" encoding="UTF-8" standalone="no"?><!DOCTYPE svg PUBLIC "-//W3C//DTD SVG 1.1//EN" "http://www.w3.org/Graphics/SVG/1.1/DTD/svg11.dtd"><svg xmlns="http://www.w3.org/2000/svg" version="1.1" width="340" height="173"><path stroke-linejoin="round" stroke-linecap="round" stroke-width="2" stroke="rgb(0, 0, 139)" fill="none" d="M 20 41 c -0.16 0.35 -6.47 13.15 -9 20 c -2.15 5.84 -3.39 11.75 -5 18 c -1.5 5.84 -3.27 11.3 -4 17 c -0.92 7.19 -1.99 16.64 -1 22 c 0.35 1.9 3.86 4.44 6 5 c 5.78 1.5 14.01 2 21 2 c 8.97 0 18.07 -0.72 27 -2 c 7.44 -1.06 15.41 -2.25 22 -5 c 8.77 -3.66 18.32 -9.46 26 -15 c 3.8 -2.75 6.81 -7.09 10 -11 c 4.29 -5.26 8.81 -10.37 12 -16 c 3.65 -6.43 6.77 -13.93 9 -21 c 1.69 -5.34 2.59 -11.31 3 -17 c 0.59 -8.24 2.16 -19.67 0 -25 c -1.28 -3.15 -8.52 -5.27 -13 -7 c -5.66 -2.19 -12.09 -4.16 -18 -5 c -5.38 -0.77 -13.2 -2.13 -17 0 c -5.7 3.19 -13.46 12.18 -17 19 c -4.79 9.23 -7.36 21.75 -10 33 c -2.4 10.24 -4.04 20.61 -5 31 c -0.7 7.61 -0.98 15.96 0 23 c 0.59 4.26 2.91 8.98 5 13 c 2.17 4.16 5 8.34 8 12 c 2.94 3.59 6.41 7.39 10 10 c 3.41 2.48 7.88 4.41 12 6 c 4.48 1.72 9.3 3.41 14 4 c 11 1.38 22.31 1.63 34 2 c 9.96 0.32 19.66 1.11 29 0 c 9.93 -1.18 20.83 -3.5 30 -7 c 8.53 -3.26 16.68 -8.96 25 -14 c 4.59 -2.78 9.32 -5.73 13 -9 c 2 -1.78 3.57 -4.52 5 -7 c 2.24 -3.86 4.47 -7.88 6 -12 c 1.77 -4.77 3.15 -9.92 4 -15 c 1.15 -6.9 1.65 -13.85 2 -21 c 0.33 -6.78 1 -14.22 0 -20 c -0.51 -2.98 -3.06 -6.25 -5 -9 c -2 -2.83 -4.51 -5.89 -7 -8 c -1.57 -1.33 -4.03 -2.65 -6 -3 c -3.23 -0.57 -7.69 -0.55 -11 0 c -2.29 0.38 -5.21 1.57 -7 3 c -2.83 2.26 -5.96 5.68 -8 9 c -5.77 9.37 -11.85 19.57 -16 30 c -6.79 17.07 -13.28 35.64 -17 53 c -2.07 9.67 -1.7 22.62 -1 31 c 0.14 1.73 2.34 4.2 4 5 c 6.91 3.33 16.63 7.27 25 9 c 10.44 2.16 21.75 2.46 33 3 c 9.85 0.48 19.49 0.99 29 0 c 12.67 -1.32 25.63 -3.73 38 -7 c 10.23 -2.71 21.18 -7.11 30 -11 c 1.56 -0.69 3.64 -2.56 4 -4 c 0.76 -3.06 1.32 -8.78 0 -12 l -16 -27"/></svg>