<?xml version="1.0" encoding="UTF-8" standalone="no"?><!DOCTYPE svg PUBLIC "-//W3C//DTD SVG 1.1//EN" "http://www.w3.org/Graphics/SVG/1.1/DTD/svg11.dtd"><svg xmlns="http://www.w3.org/2000/svg" version="1.1" width="335" height="175"><path stroke-linejoin="round" stroke-linecap="round" stroke-width="2" stroke="rgb(0, 0, 139)" fill="none" d="M 109 7 c -0.21 -0.05 -7.94 -2.61 -12 -3 c -16.42 -1.59 -34.36 -3.24 -50 -3 c -4.55 0.07 -10.71 1.53 -14 4 c -4.98 3.74 -9.94 10.99 -14 17 c -4.21 6.23 -8.13 13.54 -11 20 c -0.89 2 -0.39 4.97 -1 7 c -0.31 1.04 -1.62 1.93 -2 3 c -1.53 4.33 -3.51 9.38 -4 14 c -0.8 7.61 -0.89 16.89 0 24 c 0.33 2.65 2.25 6.1 4 8 c 1.85 2 5.2 3.67 8 5 c 4.13 1.97 8.54 3.79 13 5 c 7.86 2.12 16.04 4.6 24 5 c 18.19 0.91 38.9 0.71 56 -1 c 4.65 -0.47 9.47 -3.66 14 -6 c 5.2 -2.69 10.45 -5.54 15 -9 c 4.97 -3.77 9.39 -8.39 14 -13 c 3.93 -3.93 8.03 -7.69 11 -12 c 3.51 -5.09 6.69 -11.47 9 -17 c 0.85 -2.03 1.16 -4.9 1 -7 c -0.14 -1.88 -0.7 -5 -2 -6 c -3.41 -2.61 -10.05 -5.12 -15 -7 c -1.82 -0.69 -4.03 -1 -6 -1 c -4.21 0 -9.97 -0.7 -13 1 c -4.12 2.3 -8.41 8.38 -12 13 c -3.38 4.34 -7.27 9.1 -9 14 c -3.64 10.28 -5.62 22.33 -8 34 c -1.38 6.75 -2.41 13.28 -3 20 c -0.41 4.65 -0.24 9.41 0 14 c 0.09 1.67 0.38 3.52 1 5 c 0.97 2.34 2.4 4.97 4 7 c 1.96 2.49 4.47 5.36 7 7 c 2.76 1.78 6.6 3.18 10 4 c 6.08 1.47 12.49 2.43 19 3 c 20.7 1.81 40.57 3.8 61 4 c 13.07 0.13 26.57 -0.62 39 -3 c 11.36 -2.18 24.06 -7.24 34 -11 c 1.18 -0.45 2.3 -1.86 3 -3 c 1.84 -2.99 3.55 -6.53 5 -10 c 1.92 -4.62 3.6 -9.18 5 -14 c 1.64 -5.66 3.27 -11.3 4 -17 c 0.92 -7.19 3.37 -19.1 1 -22 c -2.04 -2.5 -14.09 -1.86 -19 0 c -5.89 2.23 -13.06 8.87 -18 14 c -3.61 3.74 -6.4 9.23 -9 14 c -1.34 2.45 -2.37 5.32 -3 8 c -0.67 2.84 -0.91 5.94 -1 9 c -0.25 8.44 -0.28 16.94 0 25 c 0.05 1.33 0.44 2.87 1 4 c 0.68 1.37 1.77 3.1 3 4 c 3.42 2.51 7.82 4.99 12 7 c 4.86 2.34 9.93 4.7 15 6 c 6.35 1.63 13.28 2.44 20 3 c 5.32 0.44 11.31 0.9 16 0 c 3.28 -0.63 7.43 -2.98 10 -5 c 1.66 -1.3 2.89 -3.87 4 -6 c 2.56 -4.88 6.01 -10.04 7 -15 c 1.5 -7.5 1.21 -16.75 1 -25 c -0.12 -4.66 -0.35 -10.54 -2 -14 c -1.24 -2.6 -5.25 -5.45 -8 -7 c -2.14 -1.2 -5.43 -1.09 -8 -2 l -9 -4"/></svg>