<?xml version="1.0" encoding="UTF-8" standalone="no"?><!DOCTYPE svg PUBLIC "-//W3C//DTD SVG 1.1//EN" "http://www.w3.org/Graphics/SVG/1.1/DTD/svg11.dtd"><svg xmlns="http://www.w3.org/2000/svg" version="1.1" width="453" height="187"><path stroke-linejoin="round" stroke-linecap="round" stroke-width="2" stroke="rgb(0, 0, 139)" fill="none" d="M 2 109 c -0.02 0.09 -0.96 3.33 -1 5 c -0.29 13.12 -1.69 28.19 0 40 c 0.75 5.28 5.06 10.75 8 16 c 1.78 3.17 3.84 6.84 6 9 c 1.08 1.08 3.32 1.64 5 2 c 2.83 0.61 5.95 0.85 9 1 c 4.05 0.19 8.04 0.4 12 0 c 6.02 -0.6 12.65 -1.07 18 -3 c 6.04 -2.18 11.71 -7.12 18 -10 c 9.87 -4.52 20.11 -7.36 30 -12 c 11.78 -5.52 23.15 -11.14 34 -18 c 11.9 -7.52 24.1 -16.25 34 -25 c 3.71 -3.28 8.06 -9.08 9 -13 c 0.74 -3.07 -0.99 -9.16 -3 -12 c -3 -4.23 -9.02 -8.58 -14 -12 c -5.56 -3.82 -11.75 -7.04 -18 -10 c -6.54 -3.1 -15.33 -8.82 -20 -8 c -4.29 0.76 -11.11 8.85 -14 14 c -4.15 7.41 -6.77 17.9 -9 27 c -1.74 7.1 -2.83 14.83 -3 22 c -0.15 6.17 0.5 13.16 2 19 c 1.37 5.34 4.26 11.36 7 16 c 1.33 2.25 3.8 4.29 6 6 c 3.73 2.9 7.78 6.07 12 8 c 7.13 3.26 15.12 5.82 23 8 c 7.93 2.19 15.86 3.93 24 5 c 9.65 1.27 19.3 2.24 29 2 c 17.74 -0.43 37.69 0.64 53 -4 c 15.23 -4.61 31.71 -16.22 46 -26 c 10.74 -7.35 20.63 -16.86 30 -26 c 4.53 -4.42 8.35 -9.9 12 -15 c 1.27 -1.78 2.81 -4.01 3 -6 c 0.72 -7.42 1.22 -17.86 0 -25 c -0.57 -3.33 -3.32 -7.96 -6 -10 c -5.97 -4.53 -15.16 -9.06 -23 -12 c -7.77 -2.91 -18.97 -6.69 -25 -6 c -3.32 0.38 -8.24 6.27 -10 10 c -3.35 7.1 -5.62 17.35 -7 26 c -1.23 7.72 -1 15.83 -1 24 c 0 7.49 -0.67 15.65 1 22 c 1.39 5.29 5.15 12.15 9 16 c 5 5 13.36 11.46 20 13 c 10.02 2.33 24.53 1.3 36 0 c 8.58 -0.97 17.42 -4.14 26 -7 c 7.58 -2.53 14.76 -5.54 22 -9 c 7.64 -3.64 14.73 -7.55 22 -12 c 9.41 -5.76 19.5 -11.61 27 -18 c 3.01 -2.57 5.02 -7.23 7 -11 c 1.3 -2.47 2.33 -5.32 3 -8 c 0.63 -2.53 0.91 -5.29 1 -8 c 0.25 -7.39 0.73 -14.9 0 -22 c -0.58 -5.63 -1.86 -12.06 -4 -17 c -1.94 -4.47 -5.68 -8.89 -9 -13 c -3.72 -4.6 -7.77 -9.38 -12 -13 c -2.46 -2.11 -5.81 -4.06 -9 -5 c -27.55 -8.12 -86 -23 -86 -23"/></svg>