<?xml version="1.0" encoding="UTF-8" standalone="no"?><!DOCTYPE svg PUBLIC "-//W3C//DTD SVG 1.1//EN" "http://www.w3.org/Graphics/SVG/1.1/DTD/svg11.dtd"><svg xmlns="http://www.w3.org/2000/svg" version="1.1" width="356" height="107"><path stroke-linejoin="round" stroke-linecap="round" stroke-width="2" stroke="rgb(0, 0, 139)" fill="none" d="M 1 40 c 0.12 0.09 5.25 2.93 7 5 c 6.83 8.09 12.66 19.66 20 27 c 4.91 4.91 12.31 9.09 19 12 c 13.55 5.9 29.1 11.93 43 15 c 7.63 1.68 16.47 0.39 25 0 c 13.69 -0.63 27.31 -0.88 40 -3 c 6.71 -1.12 13.51 -4.28 20 -7 c 3.83 -1.61 7.49 -3.81 11 -6 c 1.79 -1.12 3.91 -2.41 5 -4 c 2.29 -3.34 4.53 -7.91 6 -12 c 1.46 -4.06 2.39 -8.58 3 -13 c 1.06 -7.65 1.67 -15.15 2 -23 c 0.35 -8.16 0.5 -17.19 0 -24 c -0.08 -1.02 -1.16 -2.37 -2 -3 c -1.57 -1.18 -4.04 -2.84 -6 -3 c -5.55 -0.44 -14.4 -0.99 -19 1 c -3.94 1.71 -7.44 7.76 -11 12 c -3.59 4.27 -7 8.42 -10 13 c -3.36 5.13 -7.46 10.56 -9 16 c -2.53 8.96 -4.36 20.8 -4 30 c 0.26 6.64 3.21 15.41 6 21 c 1.36 2.72 5.1 5.71 8 7 c 5.36 2.38 12.74 4.15 19 5 c 5.73 0.77 12.08 0.67 18 0 c 11.68 -1.32 23.4 -3.22 35 -6 c 12.3 -2.94 23.89 -6.69 36 -11 c 17.62 -6.28 34.01 -12.59 51 -20 c 9.43 -4.11 18.62 -8.76 27 -14 c 4.69 -2.93 10.19 -7.38 13 -11 c 1.17 -1.5 0.93 -4.64 1 -7 c 0.27 -9.02 1.85 -20.32 0 -27 l -10 -9"/></svg>