<?xml version="1.0" encoding="UTF-8" standalone="no"?><!DOCTYPE svg PUBLIC "-//W3C//DTD SVG 1.1//EN" "http://www.w3.org/Graphics/SVG/1.1/DTD/svg11.dtd"><svg xmlns="http://www.w3.org/2000/svg" version="1.1" width="303" height="118"><path stroke-linejoin="round" stroke-linecap="round" stroke-width="2" stroke="rgb(0, 0, 139)" fill="none" d="M 4 45 c -0.05 0.26 -2.64 10.14 -3 15 c -0.28 3.83 -0.71 8.97 1 12 c 5.99 10.6 16.28 23.29 25 34 c 2.78 3.41 6.62 6.81 10 9 c 1.83 1.18 4.68 1.83 7 2 c 6.36 0.47 14.04 1.31 20 0 c 6.8 -1.49 14.32 -5.31 21 -9 c 15.75 -8.7 30.86 -17.91 46 -28 c 9.22 -6.15 17.82 -12.8 26 -20 c 5.82 -5.13 12.25 -11.28 16 -17 c 1.99 -3.03 2.22 -7.93 3 -12 c 0.57 -2.98 0.88 -5.94 1 -9 c 0.22 -5.4 0.47 -11.25 0 -16 c -0.13 -1.33 -0.99 -3.76 -2 -4 c -4.3 -1.02 -14.14 -2.21 -19 -1 c -3.07 0.77 -6.78 4.94 -9 8 c -4.45 6.15 -8.26 13.73 -12 21 c -2.7 5.25 -5.9 10.62 -7 16 c -2.08 10.2 -2.28 21.76 -3 33 c -0.3 4.75 -0.44 9.62 0 14 c 0.2 1.98 1.03 4.38 2 6 c 0.87 1.45 2.53 3.81 4 4 c 7.03 0.91 17.74 0.36 27 0 c 17.18 -0.67 34.49 0.2 50 -3 c 13.91 -2.87 28.64 -9.73 42 -16 c 8.41 -3.95 16.31 -9.54 24 -15 c 5.01 -3.56 10.85 -7.59 14 -12 c 2.92 -4.09 5.1 -10.78 6 -16 c 1 -5.81 0.65 -13.15 0 -19 c -0.29 -2.63 -1.69 -5.93 -3 -8 c -0.77 -1.21 -2.61 -2.65 -4 -3 c -3.36 -0.84 -8.47 -1.65 -12 -1 c -4.74 0.88 -10.35 3.58 -15 6 c -3.51 1.83 -7.51 4.24 -10 7 c -3.11 3.45 -5.99 8.77 -8 13 c -0.8 1.69 -0.91 3.98 -1 6 c -0.24 5.63 -0.41 11.44 0 17 c 0.25 3.34 0.76 7.52 2 10 c 0.78 1.56 3.2 2.86 5 4 c 4.54 2.86 9.38 6.61 14 8 c 4.59 1.38 10.72 1 16 1 c 2.65 0 6.16 0.15 8 -1 c 2.76 -1.72 6.35 -5.7 8 -9 l 8 -23"/></svg>