<?xml version="1.0" encoding="UTF-8" standalone="no"?><!DOCTYPE svg PUBLIC "-//W3C//DTD SVG 1.1//EN" "http://www.w3.org/Graphics/SVG/1.1/DTD/svg11.dtd"><svg xmlns="http://www.w3.org/2000/svg" version="1.1" width="315" height="124"><path stroke-linejoin="round" stroke-linecap="round" stroke-width="2" stroke="rgb(0, 0, 139)" fill="none" d="M 8 38 c -0.09 0.24 -3.77 9.27 -5 14 c -1.09 4.19 -2.11 8.8 -2 13 c 0.21 7.72 1.38 16.29 3 24 c 1 4.74 3.08 9.38 5 14 c 1.45 3.47 3.13 7.51 5 10 c 0.75 1 2.63 1.7 4 2 c 4.34 0.96 9.28 1.7 14 2 c 5.67 0.37 11.33 0.55 17 0 c 15.15 -1.47 30.67 -2.84 45 -6 c 7.8 -1.72 16.4 -4.93 23 -9 c 8.35 -5.15 17.98 -12.86 24 -20 c 3.79 -4.5 5.58 -11.77 8 -18 c 2.33 -6 4.93 -12.14 6 -18 c 0.84 -4.64 0.63 -10.57 0 -15 c -0.28 -1.98 -1.65 -4.65 -3 -6 c -1.62 -1.62 -4.64 -3.49 -7 -4 c -4.69 -1.02 -11.1 -1.52 -16 -1 c -3.86 0.41 -8.86 1.91 -12 4 c -4.21 2.81 -9.21 7.73 -12 12 c -2.45 3.74 -3.56 9.15 -5 14 c -2.3 7.75 -4.67 15.47 -6 23 c -0.61 3.48 -0.78 7.74 0 11 c 1.08 4.52 3.22 10.3 6 14 c 3.74 4.99 9.7 10.41 15 14 c 4.52 3.06 10.6 5.9 16 7 c 11.82 2.41 25.58 4.16 38 4 c 13.75 -0.17 29.46 -0.96 42 -5 c 15.91 -5.13 33.15 -14.7 48 -24 c 12.4 -7.77 25.95 -18.51 35 -28 c 3.26 -3.42 4.78 -9.98 6 -15 c 1.37 -5.63 2.2 -12.48 2 -18 c -0.11 -3.18 -1.22 -7.55 -3 -10 c -3.02 -4.16 -8.38 -8.86 -13 -12 c -4.32 -2.93 -9.94 -5.67 -15 -7 c -7.08 -1.86 -15.24 -2.45 -23 -3 c -6.36 -0.45 -13.39 -0.83 -19 0 c -2.64 0.39 -5.49 2.39 -8 4 c -5.84 3.74 -14.5 7.59 -17 12 c -2.16 3.81 -1.12 14.08 0 18 c 0.42 1.46 3.9 2.38 6 3 c 12.32 3.64 25.16 7.51 38 10 c 9.53 1.85 19.93 3.73 29 3 c 10.56 -0.85 23.08 -5.05 33 -8 l 4 -3"/></svg>