<?xml version="1.0" encoding="UTF-8" standalone="no"?><!DOCTYPE svg PUBLIC "-//W3C//DTD SVG 1.1//EN" "http://www.w3.org/Graphics/SVG/1.1/DTD/svg11.dtd"><svg xmlns="http://www.w3.org/2000/svg" version="1.1" width="414" height="136"><path stroke-linejoin="round" stroke-linecap="round" stroke-width="2" stroke="rgb(0, 0, 139)" fill="none" d="M 63 28 c -0.38 0.05 -15.64 0.82 -22 3 c -5.41 1.85 -10.67 6.35 -16 10 c -7.68 5.26 -16.41 11.14 -22 16 c -0.85 0.74 -0.77 2.63 -1 4 c -0.45 2.68 -0.88 5.29 -1 8 c -0.22 5.04 -0.24 10.03 0 15 c 0.1 2.01 0.16 4.42 1 6 c 1.58 2.97 4.44 6.15 7 9 c 3.5 3.89 6.87 8.63 11 11 c 8.33 4.79 19.15 9.05 29 12 c 9.91 2.97 20.68 4.85 31 6 c 7.51 0.83 15.63 1.05 23 0 c 10.87 -1.55 22.31 -4.65 33 -8 c 6.2 -1.95 12.32 -4.88 18 -8 c 4.56 -2.5 10.08 -5.71 13 -9 c 1.75 -1.97 2.38 -6.09 3 -9 c 0.33 -1.54 0.53 -3.8 0 -5 c -0.6 -1.36 -2.52 -2.97 -4 -4 c -2.7 -1.87 -5.84 -3.8 -9 -5 c -9.03 -3.42 -18.99 -6.81 -28 -9 c -2.76 -0.67 -7.23 -1.35 -9 0 c -3.92 2.99 -9.97 10.69 -12 16 c -1.83 4.79 -1.61 12.88 -1 18 c 0.27 2.29 2.38 5.38 4 7 c 1.35 1.35 3.91 2.51 6 3 c 14.31 3.37 29.92 7.16 45 9 c 12.16 1.48 24.21 1 37 1 c 26.61 0 53.48 2.66 77 -1 c 14.8 -2.3 31.08 -11.72 45 -18 c 2.24 -1.01 4.5 -3.16 6 -5 c 1.29 -1.58 2.51 -4.06 3 -6 c 0.43 -1.74 0.52 -4.32 0 -6 c -0.69 -2.25 -2.37 -5 -4 -7 c -2.57 -3.16 -5.8 -6.51 -9 -9 c -2.59 -2.02 -5.84 -3.74 -9 -5 c -8.45 -3.38 -17.6 -7.11 -26 -9 c -4.27 -0.96 -9.41 -0.24 -14 0 c -1.67 0.09 -4.34 -0.05 -5 1 c -3.23 5.16 -8.19 15.59 -10 23 c -1.3 5.32 -1.91 13.76 0 18 c 2.03 4.5 8.8 10.76 14 13 c 12.41 5.35 28.74 8.18 44 12 c 13.72 3.43 26.77 7.3 40 9 c 9.68 1.24 19.95 0.57 30 0 c 7.77 -0.44 16.38 -1.23 23 -3 c 2.45 -0.65 5.48 -3.14 7 -5 c 1.12 -1.37 1.72 -4.03 2 -6 c 0.36 -2.49 0.57 -5.55 0 -8 c -1.34 -5.81 -2.95 -13.04 -6 -18 c -4.45 -7.23 -11.03 -15.68 -18 -21 c -17.35 -13.24 -37.7 -26.1 -58 -37 c -25.35 -13.61 -78 -36 -78 -36"/></svg>