<?xml version="1.0" encoding="UTF-8" standalone="no"?><!DOCTYPE svg PUBLIC "-//W3C//DTD SVG 1.1//EN" "http://www.w3.org/Graphics/SVG/1.1/DTD/svg11.dtd"><svg xmlns="http://www.w3.org/2000/svg" version="1.1" width="218" height="112"><path stroke-linejoin="round" stroke-linecap="round" stroke-width="2" stroke="rgb(0, 0, 139)" fill="none" d="M 29 1 c -0.4 0.54 -16.01 20.52 -23 31 c -2.19 3.28 -6.5 8.78 -5 11 c 9.95 14.71 38.41 45.65 53 60 c 1.46 1.43 5.9 1.07 8 0 c 32.88 -16.72 81.87 -43.17 110 -60 c 1.63 -0.98 3.2 -6.59 2 -7 c -19.96 -6.77 -91.53 -27.48 -117 -32 c -2.56 -0.45 -4.99 6.53 -7 10 c -1.62 2.8 -5.42 7.46 -4 9 c 18.42 20.08 68.62 70.46 93 88 c 4.16 2.99 13.95 -3.56 21 -6 c 19.61 -6.79 52.65 -17.01 57 -21 c 1.73 -1.59 -21 -12 -21 -12"/></svg>