<?xml version="1.0" encoding="UTF-8" standalone="no"?><!DOCTYPE svg PUBLIC "-//W3C//DTD SVG 1.1//EN" "http://www.w3.org/Graphics/SVG/1.1/DTD/svg11.dtd"><svg xmlns="http://www.w3.org/2000/svg" version="1.1" width="345" height="206"><path stroke-linejoin="round" stroke-linecap="round" stroke-width="2" stroke="rgb(0, 0, 139)" fill="none" d="M 18 1 l 70 0"/><path stroke-linejoin="round" stroke-linecap="round" stroke-width="2" stroke="rgb(0, 0, 139)" fill="none" d="M 32 3 c -0.14 0.98 -6.1 37 -8 56 c -1.14 11.42 0.3 22.81 -1 34 c -1.36 11.75 -3.66 23.99 -7 35 c -2.18 7.18 -7.24 13.82 -10 21 c -2.22 5.77 -5 18 -5 18"/><path stroke-linejoin="round" stroke-linecap="round" stroke-width="2" stroke="rgb(0, 0, 139)" fill="none" d="M 39 38 l 10 31"/><path stroke-linejoin="round" stroke-linecap="round" stroke-width="2" stroke="rgb(0, 0, 139)" fill="none" d="M 46 27 c 0.35 0 13.52 -0.68 20 0 c 5.97 0.63 15.1 1.74 18 4 c 1.57 1.22 0.69 6.87 0 10 c -2.85 12.97 -11 40 -11 40"/><path stroke-linejoin="round" stroke-linecap="round" stroke-width="2" stroke="rgb(0, 0, 139)" fill="none" d="M 46 51 l 34 1"/><path stroke-linejoin="round" stroke-linecap="round" stroke-width="2" stroke="rgb(0, 0, 139)" fill="none" d="M 50 83 l 26 -4"/><path stroke-linejoin="round" stroke-linecap="round" stroke-width="2" stroke="rgb(0, 0, 139)" fill="none" d="M 66 79 c -0.02 0.07 -1 2.68 -1 4 c 0 17.96 4.05 54.24 1 56 c -2.67 1.54 -27 -41 -27 -41"/><path stroke-linejoin="round" stroke-linecap="round" stroke-width="2" stroke="rgb(0, 0, 139)" fill="none" d="M 37 95 l -6 18"/><path stroke-linejoin="round" stroke-linecap="round" stroke-width="2" stroke="rgb(0, 0, 139)" fill="none" d="M 80 100 l 33 11"/><path stroke-linejoin="round" stroke-linecap="round" stroke-width="2" stroke="rgb(0, 0, 139)" fill="none" d="M 201 29 c -0.67 0.32 -25.35 12.5 -38 18 c -2.48 1.08 -8 2 -8 2"/><path stroke-linejoin="round" stroke-linecap="round" stroke-width="2" stroke="rgb(0, 0, 139)" fill="none" d="M 178 44 c 0.19 1.24 6.94 46.62 11 71 c 1.1 6.59 3.61 18.53 4 19 c 0.26 0.32 1 -13 1 -13"/><path stroke-linejoin="round" stroke-linecap="round" stroke-width="2" stroke="rgb(0, 0, 139)" fill="none" d="M 254 21 l -10 76"/><path stroke-linejoin="round" stroke-linecap="round" stroke-width="2" stroke="rgb(0, 0, 139)" fill="none" d="M 244 59 c 0.11 -0.02 3.98 -0.98 6 -1 c 31.17 -0.31 94 0 94 0"/><path stroke-linejoin="round" stroke-linecap="round" stroke-width="2" stroke="rgb(0, 0, 139)" fill="none" d="M 277 94 c 0.79 -0.09 29.76 -3.77 45 -5 c 5.72 -0.46 17 0 17 0"/><path stroke-linejoin="round" stroke-linecap="round" stroke-width="2" stroke="rgb(0, 0, 139)" fill="none" d="M 325 8 c -0.21 3.1 -8.31 116.36 -12 177 c -0.42 6.84 0 20 0 20"/></svg>