<?xml version="1.0" encoding="UTF-8" standalone="no"?><!DOCTYPE svg PUBLIC "-//W3C//DTD SVG 1.1//EN" "http://www.w3.org/Graphics/SVG/1.1/DTD/svg11.dtd"><svg xmlns="http://www.w3.org/2000/svg" version="1.1" width="311" height="146"><path stroke-linejoin="round" stroke-linecap="round" stroke-width="2" stroke="rgb(0, 0, 139)" fill="none" d="M 57 16 c -0.1 0 -4.84 -1.04 -6 0 c -9.54 8.59 -24.12 23.45 -34 36 c -5.72 7.26 -9.68 16.62 -14 25 c -0.95 1.85 -1.86 4.02 -2 6 c -0.49 6.89 -0.48 15 0 22 c 0.16 2.32 1.04 5.27 2 7 c 0.48 0.86 2.25 1.15 3 2 c 4.01 4.55 7.71 10.3 12 15 c 2.69 2.94 5.88 5.55 9 8 c 1.51 1.19 3.32 2.79 5 3 c 5.46 0.68 13.36 1.62 19 0 c 17.19 -4.94 37.35 -12.9 54 -21 c 7.19 -3.5 13.47 -9.62 20 -15 c 4.99 -4.11 10.39 -8.91 14 -13 c 0.78 -0.88 1.17 -2.79 1 -4 c -0.73 -5.13 -1.86 -11.96 -4 -17 c -2.31 -5.45 -6.27 -11.68 -10 -16 c -2.14 -2.48 -6.01 -5.25 -9 -6 c -4.14 -1.03 -11.18 -0.95 -15 0 c -1.8 0.45 -3.82 3.16 -5 5 c -1.65 2.56 -3.2 5.92 -4 9 c -1.81 7 -3.43 14.64 -4 22 c -0.76 9.87 -0.94 21.1 0 30 c 0.28 2.65 2.15 5.97 4 8 c 4.39 4.83 10.47 9.8 16 14 c 2.68 2.03 5.93 3.57 9 5 c 1.89 0.88 4.03 1.75 6 2 c 3.12 0.39 6.69 0.34 10 0 c 6.36 -0.66 13.43 -0.65 19 -3 c 16.95 -7.16 34.93 -17.28 52 -27 c 7.11 -4.05 13.74 -8.81 20 -14 c 7.44 -6.17 14.79 -12.97 21 -20 c 3.56 -4.04 6.39 -9.14 9 -14 c 2.38 -4.45 4.71 -9.38 6 -14 c 0.94 -3.35 0.9 -7.25 1 -11 c 0.24 -9.51 1.86 -20.74 0 -28 c -0.99 -3.86 -6.65 -9.16 -10 -11 c -2.25 -1.24 -6.83 -0.37 -10 0 c -2.31 0.27 -5.34 0.71 -7 2 c -3.71 2.88 -7.83 7.72 -11 12 c -3.41 4.6 -6.95 9.77 -9 15 c -3.78 9.66 -6.67 20.51 -9 31 c -1.68 7.54 -2.51 15.23 -3 23 c -0.52 8.37 -1.45 17.76 0 25 c 0.98 4.92 4.74 10.71 8 15 c 3.79 5 9.13 9.6 14 14 c 2.12 1.91 4.6 3.6 7 5 c 1.5 0.88 3.35 1.85 5 2 c 5.21 0.47 12.12 1.14 17 0 c 4.24 -0.99 8.86 -4.27 13 -7 c 9.65 -6.36 19.32 -12.84 28 -20 c 4.46 -3.68 9.32 -8.54 12 -13 c 1.87 -3.12 2.82 -8.06 3 -12 c 0.46 -9.89 1.74 -23.48 -1 -31 c -1.75 -4.82 -9.66 -8.9 -15 -13 c -7.91 -6.08 -16.06 -12.46 -24 -17 c -3.08 -1.76 -7.66 -1.6 -11 -3 c -2.76 -1.16 -5.35 -3.86 -8 -5 l -6 -1"/></svg>