<?xml version="1.0" encoding="UTF-8" standalone="no"?><!DOCTYPE svg PUBLIC "-//W3C//DTD SVG 1.1//EN" "http://www.w3.org/Graphics/SVG/1.1/DTD/svg11.dtd"><svg xmlns="http://www.w3.org/2000/svg" version="1.1" width="235" height="159"><path stroke-linejoin="round" stroke-linecap="round" stroke-width="2" stroke="rgb(0, 0, 139)" fill="none" d="M 135 12 c -2.34 1.52 -104.14 63.16 -134 87 c -3.74 2.98 -3.52 16.95 0 20 c 13.8 11.97 55.12 45.61 68 39 c 23.02 -11.82 70.98 -93.85 80 -115 c 1.84 -4.33 -19.54 -16.52 -25 -14 c -14.28 6.61 -47.44 39.22 -55 51 c -2.02 3.14 7.46 16.28 12 16 c 34.34 -2.13 121.67 -12.07 149 -26 c 9.42 -4.8 11.15 -45.05 4 -52 c -10.55 -10.25 -50.54 -11.8 -75 -17 l -5 0"/></svg>