<?xml version="1.0" encoding="UTF-8" standalone="no"?><!DOCTYPE svg PUBLIC "-//W3C//DTD SVG 1.1//EN" "http://www.w3.org/Graphics/SVG/1.1/DTD/svg11.dtd"><svg xmlns="http://www.w3.org/2000/svg" version="1.1" width="152" height="117"><path stroke-linejoin="round" stroke-linecap="round" stroke-width="2" stroke="rgb(0, 0, 139)" fill="none" d="M 13 1 c -0.07 0.03 -3.87 0.95 -4 2 c -2.76 22.33 -5.67 62.61 -8 95 c -0.39 5.44 -1.87 13.59 0 16 c 1.66 2.13 10.17 3.36 14 2 c 22.54 -8.01 60.66 -23.71 76 -34 c 3.13 -2.1 2.07 -12.63 0 -17 c -6.16 -12.97 -22.59 -35.02 -28 -42 c -0.39 -0.5 -2.94 1.13 -3 2 c -0.93 13.55 -1.28 37.87 -1 56 c 0.05 2.98 1.01 6.19 2 9 c 0.96 2.72 1.88 7.28 4 8 c 12.58 4.27 34.92 7.87 52 11 c 2.57 0.47 6.76 1.46 8 0 c 7.39 -8.7 24.55 -29.85 26 -40 c 0.87 -6.08 -10.72 -15.82 -17 -23 c -7.76 -8.87 -15.84 -20.04 -25 -25 c -12.71 -6.88 -31.55 -11.94 -47 -14 c -18.27 -2.44 -58 0 -58 0"/></svg>