<?xml version="1.0" encoding="UTF-8" standalone="no"?><!DOCTYPE svg PUBLIC "-//W3C//DTD SVG 1.1//EN" "http://www.w3.org/Graphics/SVG/1.1/DTD/svg11.dtd"><svg xmlns="http://www.w3.org/2000/svg" version="1.1" width="222" height="206"><path stroke-linejoin="round" stroke-linecap="round" stroke-width="2" stroke="rgb(0, 0, 139)" fill="none" d="M 1 140 c 0.02 0.79 -4.2 46.49 1 45 c 21.63 -6.2 129.76 -70.94 163 -92 c 1.81 -1.15 -0.99 -6.98 -2 -10 c -0.57 -1.72 -1.52 -4.55 -3 -5 c -35.49 -10.8 -135 -37 -135 -37"/><path stroke-linejoin="round" stroke-linecap="round" stroke-width="2" stroke="rgb(0, 0, 139)" fill="none" d="M 10 1 c 0.37 1.33 11.22 52.1 21 76 c 13.92 34.03 32.43 69.91 51 100 c 6.55 10.62 20.26 30.12 28 28 c 25.25 -6.9 93.76 -44.93 111 -66 c 7.52 -9.19 -4.12 -41.52 -12 -55 c -7.35 -12.57 -36.41 -36.87 -40 -34 c -4.25 3.4 1.72 41.63 5 62 c 3.04 18.9 14 56 14 56"/></svg>