<?xml version="1.0" encoding="UTF-8" standalone="no"?><!DOCTYPE svg PUBLIC "-//W3C//DTD SVG 1.1//EN" "http://www.w3.org/Graphics/SVG/1.1/DTD/svg11.dtd"><svg xmlns="http://www.w3.org/2000/svg" version="1.1" width="202" height="134"><path stroke-linejoin="round" stroke-linecap="round" stroke-width="2" stroke="rgb(0, 0, 139)" fill="none" d="M 1 45 c 0 0.39 -2.87 16.53 0 22 c 9.62 18.35 32.34 50.26 43 60 c 2.39 2.18 12.76 -3.08 15 -7 c 17.05 -29.91 55 -97.02 54 -114 c -0.48 -8.24 -54.83 -12.85 -61 -5 c -8.07 10.26 -1.87 56.58 2 80 c 1.6 9.69 9.72 20.41 16 29 c 6.03 8.25 14.24 21.86 22 23 c 17.93 2.64 57.87 0.99 73 -9 c 14.92 -9.86 33.61 -46.97 36 -63 c 1.25 -8.4 -13.87 -26.03 -22 -31 c -6.86 -4.19 -23.3 -2.24 -32 -2 l -4 3"/></svg>