<?xml version="1.0" encoding="UTF-8" standalone="no"?><!DOCTYPE svg PUBLIC "-//W3C//DTD SVG 1.1//EN" "http://www.w3.org/Graphics/SVG/1.1/DTD/svg11.dtd"><svg xmlns="http://www.w3.org/2000/svg" version="1.1" width="264" height="140"><path stroke-linejoin="round" stroke-linecap="round" stroke-width="2" stroke="rgb(0, 0, 139)" fill="none" d="M 7 54 c -0.05 0.09 -2.7 3.27 -3 5 c -1.53 8.94 -2.41 19.8 -3 30 c -0.43 7.44 -0.44 14.75 0 22 c 0.22 3.68 1.06 7.43 2 11 c 0.72 2.73 1.7 5.77 3 8 c 0.86 1.48 2.54 2.98 4 4 c 1.73 1.21 3.98 2.27 6 3 c 1.54 0.56 3.33 0.91 5 1 c 4.26 0.24 9.36 1.13 13 0 c 5.14 -1.59 10.67 -5.67 16 -9 c 11.11 -6.95 22.46 -13.33 32 -21 c 5.3 -4.26 10.57 -10.28 14 -16 c 4.2 -7 8.75 -16.23 10 -24 c 1.54 -9.56 0.19 -23.17 -1 -32 c -0.24 -1.77 -2.53 -3.53 -4 -5 c -1.47 -1.47 -3.24 -3.19 -5 -4 c -2.26 -1.04 -5.36 -1.71 -8 -2 c -3.21 -0.36 -7.16 -0.57 -10 0 c -1.66 0.33 -3.4 1.88 -5 3 c -1.76 1.23 -4.43 2.35 -5 4 c -2.26 6.56 -4.48 16.73 -5 25 c -0.79 12.66 -0.43 27.53 1 39 c 0.38 3.03 3.02 6.67 5 9 c 1.38 1.63 3.88 3.17 6 4 c 5.22 2.04 11.43 4.13 17 5 c 4.71 0.74 10.02 0.51 15 0 c 11.41 -1.16 23.88 -1.4 34 -5 c 13.96 -4.96 28.8 -13.73 42 -22 c 8.91 -5.59 17.49 -12.65 25 -20 c 7.99 -7.82 15.92 -17.34 22 -26 c 2.09 -2.97 3.03 -7.27 4 -11 c 1.01 -3.88 1.68 -7.98 2 -12 c 0.34 -4.3 0.78 -9.68 0 -13 c -0.34 -1.45 -3.16 -4.52 -4 -4 c -3.58 2.21 -13.5 10.69 -17 17 c -5.72 10.29 -9.48 24.29 -13 37 c -4.23 15.25 -7.43 30.6 -10 46 c -1.09 6.55 -1 13.29 -1 20 c 0 4.04 0.03 8.72 1 12 c 0.51 1.75 2.39 4.83 4 5 c 13.3 1.4 37.64 1.77 53 1 c 2.34 -0.12 4.95 -2.43 7 -4 c 2.15 -1.66 4.7 -3.96 6 -6 c 0.78 -1.22 0.93 -3.33 1 -5 c 0.26 -5.9 1.23 -12.42 0 -18 c -3.57 -16.19 -8.58 -34.88 -15 -50 l -16 -23"/></svg>