<?xml version="1.0" encoding="UTF-8" standalone="no"?><!DOCTYPE svg PUBLIC "-//W3C//DTD SVG 1.1//EN" "http://www.w3.org/Graphics/SVG/1.1/DTD/svg11.dtd"><svg xmlns="http://www.w3.org/2000/svg" version="1.1" width="207" height="147"><path stroke-linejoin="round" stroke-linecap="round" stroke-width="2" stroke="rgb(0, 0, 139)" fill="none" d="M 25 58 c -0.26 0.39 -10.72 14.42 -15 22 c -2.95 5.23 -5.87 11.33 -7 17 c -1.73 8.65 -3.87 21.53 -2 28 c 1.1 3.78 8.59 8.18 13 10 c 4.33 1.79 10.48 1.56 16 2 c 16.11 1.28 32.25 3.81 47 3 c 8.43 -0.46 18.32 -3.47 26 -7 c 8.22 -3.78 18.39 -10.03 24 -16 c 3.58 -3.81 5.29 -11.3 7 -17 c 1.22 -4.08 2.15 -8.93 2 -13 c -0.16 -4.43 -0.97 -10.31 -3 -14 c -2.82 -5.11 -8.12 -10.89 -13 -15 c -7.43 -6.25 -18.09 -13.76 -25 -17 c -1.66 -0.78 -5.33 0.73 -7 2 c -3.4 2.6 -7.31 7.04 -10 11 c -3.48 5.13 -7.07 11.2 -9 17 c -2.56 7.69 -4.23 16.67 -5 25 c -0.88 9.47 -1.59 21.04 0 29 c 0.75 3.73 4.82 8.46 8 11 c 4.5 3.6 11.35 7.97 17 9 c 11.17 2.03 26.32 2.57 38 1 c 9.43 -1.27 19.94 -5.83 29 -10 c 7.3 -3.36 14.56 -8.03 21 -13 c 8.12 -6.27 17.29 -13.71 23 -21 c 3.14 -4 4.96 -10.81 6 -16 c 0.85 -4.26 0.85 -9.74 0 -14 c -1.04 -5.19 -2.77 -12 -6 -16 c -8.42 -10.42 -20.39 -23.12 -32 -31 c -14.22 -9.66 -49 -24 -49 -24"/></svg>