<?xml version="1.0" encoding="UTF-8" standalone="no"?><!DOCTYPE svg PUBLIC "-//W3C//DTD SVG 1.1//EN" "http://www.w3.org/Graphics/SVG/1.1/DTD/svg11.dtd"><svg xmlns="http://www.w3.org/2000/svg" version="1.1" width="347" height="180"><path stroke-linejoin="round" stroke-linecap="round" stroke-width="2" stroke="rgb(0, 0, 139)" fill="none" d="M 6 30 c -0.09 0.37 -4.52 14.02 -5 21 c -1.14 16.48 -0.69 33.87 0 51 c 0.32 8.12 0.98 16.53 3 24 c 2.17 8.03 6.06 16.74 10 24 c 2.15 3.97 5.77 8.15 9 11 c 2.03 1.79 5.33 3.33 8 4 c 3.59 0.9 7.9 0.81 12 1 c 3.4 0.15 6.7 0.38 10 0 c 8.36 -0.96 17.68 -1.5 25 -4 c 5.45 -1.86 10.89 -6.23 16 -10 c 9.05 -6.68 17.9 -13.54 26 -21 c 4.47 -4.12 9.1 -8.95 12 -14 c 4.44 -7.72 8.27 -17.38 11 -26 c 1.46 -4.62 1.69 -9.94 2 -15 c 0.37 -6.02 0.26 -12.1 0 -18 c -0.07 -1.67 -0.1 -4.1 -1 -5 c -1.57 -1.57 -5.4 -3.39 -8 -4 c -2.61 -0.61 -6.2 -0.37 -9 0 c -1.97 0.26 -5.07 0.63 -6 2 c -4.28 6.31 -10.46 17.24 -13 26 c -3.18 10.95 -3.84 23.89 -5 36 c -0.51 5.33 -0.6 10.75 0 16 c 1.06 9.33 2.66 19.07 5 28 c 1.25 4.78 3.39 10.52 6 14 c 1.85 2.47 5.93 5.02 9 6 c 4.58 1.47 10.67 1.85 16 2 c 6.62 0.18 13.99 0.73 20 -1 c 12.65 -3.64 26.15 -9.96 39 -16 c 9.42 -4.42 18.3 -9.35 27 -15 c 10.48 -6.81 20.61 -14.18 30 -22 c 4.47 -3.72 9.95 -8.26 12 -13 c 3.68 -8.51 5.1 -20.46 7 -31 c 1.14 -6.34 1.69 -12.54 2 -19 c 0.37 -7.77 1.35 -16.66 0 -23 c -0.71 -3.37 -4.37 -7.55 -7 -10 c -1.93 -1.8 -5.46 -3.8 -8 -4 c -4.87 -0.39 -11.67 0.89 -17 2 c -2.37 0.49 -5.11 1.61 -7 3 c -2.81 2.06 -5.91 5.05 -8 8 c -3.39 4.79 -6.52 10.5 -9 16 c -2.14 4.74 -4.6 10.05 -5 15 c -1.19 14.72 -1.22 33.85 0 47 c 0.22 2.41 3.12 5.29 5 7 c 1.47 1.33 3.93 2.59 6 3 c 10.6 2.12 22.86 4.68 34 5 c 11.38 0.33 24.04 -1.03 35 -3 c 5.04 -0.91 10.57 -3.4 15 -6 c 4.89 -2.87 9.84 -7.04 14 -11 c 2.67 -2.54 5.06 -5.81 7 -9 c 2.67 -4.39 5.27 -9.15 7 -14 c 3.23 -9.03 6.69 -18.8 8 -28 c 1.26 -8.84 0.28 -18.82 0 -28 c -0.05 -1.67 -0.17 -3.86 -1 -5 c -1.5 -2.06 -4.47 -4.39 -7 -6 c -4.67 -2.97 -9.75 -5.56 -15 -8 l -28 -12"/></svg>